<svg width="43" height="44" viewBox="0 0 43 44" fill="none" xmlns="http://www.w3.org/2000/svg">
<path d="M15.5371 21.4499C16.9199 24.3718 19.2289 26.7285 22.0879 28.1359C22.2988 28.2381 22.532 28.2823 22.7647 28.2642C22.9974 28.2461 23.2214 28.1663 23.4148 28.0327L27.6141 25.1624C27.7996 25.0337 28.014 24.9551 28.2372 24.9341C28.4604 24.913 28.6852 24.9502 28.8906 25.0421L36.7516 28.4968C37.0202 28.6112 37.2447 28.8129 37.3904 29.0706C37.5361 29.3284 37.5949 29.628 37.5578 29.9234C37.3087 31.9132 36.3595 33.742 34.8879 35.0675C33.4162 36.3931 31.523 37.1245 29.5625 37.1249C23.504 37.1249 17.6936 34.6622 13.4095 30.2786C9.1255 25.8949 6.71875 19.9494 6.71875 13.7499C6.71919 11.7438 7.43399 9.80657 8.72938 8.30073C10.0248 6.79489 11.812 5.82363 13.7566 5.56868C14.0453 5.53075 14.3381 5.59095 14.59 5.74002C14.8419 5.88909 15.039 6.11877 15.1508 6.39368L18.527 14.4546C18.6147 14.6615 18.6515 14.8872 18.6339 15.112C18.6163 15.3368 18.545 15.5538 18.4262 15.7437L15.6211 20.1093C15.4962 20.3068 15.4229 20.5337 15.4082 20.7684C15.3935 21.0031 15.4379 21.2378 15.5371 21.4499V21.4499Z" stroke="white" stroke-width="2" stroke-linecap="round" stroke-linejoin="round"/>
</svg>
