<svg width="47" height="46" viewBox="0 0 47 46" fill="none" xmlns="http://www.w3.org/2000/svg">
<path d="M38.0403 6.33436L5.15442 15.5967C4.87448 15.6733 4.62494 15.8342 4.43978 16.0577C4.25463 16.2812 4.14287 16.5563 4.11973 16.8456C4.09659 17.1349 4.16318 17.4243 4.31045 17.6744C4.45772 17.9245 4.6785 18.1231 4.94271 18.2431L20.0448 25.3884C20.3406 25.5254 20.5782 25.763 20.7152 26.0588L27.8605 41.1609C27.9805 41.4251 28.1791 41.6459 28.4292 41.7931C28.6793 41.9404 28.9687 42.007 29.258 41.9839C29.5473 41.9607 29.8224 41.849 30.0459 41.6638C30.2694 41.4787 30.4303 41.2291 30.5069 40.9492L39.7692 8.06334C39.8394 7.82336 39.8438 7.56892 39.7818 7.32668C39.7198 7.08445 39.5939 6.86335 39.4171 6.68655C39.2403 6.50974 39.0192 6.38376 38.7769 6.3218C38.5347 6.25983 38.2802 6.26417 38.0403 6.33436V6.33436Z" stroke="white" stroke-width="2" stroke-linecap="round" stroke-linejoin="round"/>
<path d="M20.5029 25.6L28.4774 17.6255" stroke="white" stroke-width="1.5" stroke-linecap="round" stroke-linejoin="round"/>
</svg>
