<svg width="60" height="60" viewBox="0 0 60 60" fill="none" xmlns="http://www.w3.org/2000/svg">
<path d="M43.125 18.75H9.375C8.33947 18.75 7.5 19.5895 7.5 20.625V46.875C7.5 47.9105 8.33947 48.75 9.375 48.75H43.125C44.1605 48.75 45 47.9105 45 46.875V20.625C45 19.5895 44.1605 18.75 43.125 18.75Z" stroke="white" stroke-width="3" stroke-linecap="round" stroke-linejoin="round"/>
<path d="M15 18.75V13.125C15 12.6277 15.1975 12.1508 15.5492 11.7992C15.9008 11.4475 16.3777 11.25 16.875 11.25H50.625C51.1223 11.25 51.5992 11.4475 51.9508 11.7992C52.3025 12.1508 52.5 12.6277 52.5 13.125V39.375C52.5 39.8723 52.3025 40.3492 51.9508 40.7008C51.5992 41.0525 51.1223 41.25 50.625 41.25H45" stroke="white" stroke-width="3" stroke-linecap="round" stroke-linejoin="round"/>
<path d="M7.5 26.25H45" stroke="white" stroke-width="3" stroke-linecap="round" stroke-linejoin="round"/>
</svg>
