<svg width="216" height="216" viewBox="0 0 216 216" fill="none" xmlns="http://www.w3.org/2000/svg">
<g filter="url(#filter0_d_2649_2463)">
<circle cx="108" cy="108" r="28" fill="#FF81AF"/>
</g>
<path d="M99.4379 112.223L101.705 99.3634C101.74 99.1675 101.851 98.9934 102.014 98.8793C102.177 98.7652 102.378 98.7205 102.574 98.755L107.745 99.6667C107.94 99.7012 108.115 99.8122 108.229 99.9751C108.343 100.138 108.387 100.34 108.353 100.536L106.074 113.461C105.92 114.331 105.432 115.107 104.713 115.621C103.994 116.135 103.102 116.346 102.229 116.21C100.359 115.917 99.1093 114.087 99.4379 112.223Z" stroke="#F2F2F2" stroke-width="1.6" stroke-linecap="round" stroke-linejoin="round"/>
<path d="M107.089 107.704L113.929 105.214C114.116 105.146 114.322 105.155 114.503 105.239C114.683 105.324 114.822 105.476 114.89 105.663L116.686 110.596C116.72 110.689 116.735 110.787 116.731 110.885C116.726 110.984 116.703 111.08 116.661 111.17C116.619 111.259 116.561 111.339 116.488 111.406C116.415 111.472 116.33 111.524 116.238 111.557L103.904 116.046" stroke="#F2F2F2" stroke-width="1.6" stroke-linecap="round" stroke-linejoin="round"/>
<path d="M116.625 111.238V115.5C116.625 115.699 116.546 115.89 116.405 116.03C116.265 116.171 116.074 116.25 115.875 116.25H102.75" stroke="#F2F2F2" stroke-width="1.6" stroke-linecap="round" stroke-linejoin="round"/>
<path d="M102.75 114C103.371 114 103.875 113.496 103.875 112.875C103.875 112.254 103.371 111.75 102.75 111.75C102.129 111.75 101.625 112.254 101.625 112.875C101.625 113.496 102.129 114 102.75 114Z" fill="#F2F2F2"/>
<defs>
<filter id="filter0_d_2649_2463" x="0" y="0" width="216" height="216" filterUnits="userSpaceOnUse" color-interpolation-filters="sRGB">
<feFlood flood-opacity="0" result="BackgroundImageFix"/>
<feColorMatrix in="SourceAlpha" type="matrix" values="0 0 0 0 0 0 0 0 0 0 0 0 0 0 0 0 0 0 127 0" result="hardAlpha"/>
<feOffset/>
<feGaussianBlur stdDeviation="40"/>
<feComposite in2="hardAlpha" operator="out"/>
<feColorMatrix type="matrix" values="0 0 0 0 0 0 0 0 0 0 0 0 0 0 0 0 0 0 0.25 0"/>
<feBlend mode="normal" in2="BackgroundImageFix" result="effect1_dropShadow_2649_2463"/>
<feBlend mode="normal" in="SourceGraphic" in2="effect1_dropShadow_2649_2463" result="shape"/>
</filter>
</defs>
</svg>
