<svg width="46" height="31" viewBox="0 0 46 31" fill="none" xmlns="http://www.w3.org/2000/svg">
<g opacity="0.5">
<path d="M27.3547 27.1174C29.1426 29.7 31.9675 30.9913 35.8293 30.9913C38.833 30.9913 41.2645 30.1886 43.1239 28.5832C44.9833 26.908 45.913 24.7093 45.913 21.9871C45.913 19.1253 45.0549 16.9266 43.3385 15.391C41.6221 13.7855 39.3336 12.9828 36.473 12.9828C33.1117 12.9828 30.5014 14.0647 28.642 16.2286C28.499 15.74 28.4275 14.9722 28.4275 13.9251C28.4275 12.5989 28.6063 11.4472 28.9638 10.47C29.536 8.72503 30.5372 7.08472 31.9675 5.54912C33.4693 3.94371 35.1499 2.72221 37.0093 1.88461L36.0439 0C32.3251 1.6752 29.5002 4.04841 27.5693 7.11962C25.6384 10.1908 24.6729 13.5412 24.6729 17.1709C24.6729 19.2649 24.9232 21.1844 25.4238 22.9294C25.9244 24.6744 26.5681 26.0704 27.3547 27.1174Z" fill="#C713CB"/>
<path d="M2.68184 27.1174C4.46973 29.7 7.2946 30.9913 11.1564 30.9913C14.1601 30.9913 16.5916 30.1886 18.451 28.5832C20.3104 26.908 21.2401 24.7093 21.2401 21.9871C21.2401 19.1253 20.382 16.9266 18.6656 15.391C16.9492 13.7855 14.6607 12.9828 11.8001 12.9828C8.43885 12.9828 5.82852 14.0647 3.96912 16.2286C3.82609 15.74 3.75457 14.9722 3.75457 13.9251C3.75457 12.5989 3.93336 11.4472 4.29094 10.47C4.86306 8.72503 5.86428 7.08472 7.2946 5.54912C8.79642 3.94371 10.477 2.72221 12.3364 1.88461L11.371 0C7.65217 1.6752 4.82731 4.04841 2.89638 7.11962C0.965461 10.1908 0 13.5412 0 17.1709C0 19.2649 0.250305 21.1844 0.750915 22.9294C1.25152 24.6744 1.89516 26.0704 2.68184 27.1174Z" fill="#C713CB"/>
</g>
</svg>
